<?xml version="1.0" encoding="UTF-8"?>
<svg id="_레이어_2" data-name="레이어 2" xmlns="http://www.w3.org/2000/svg" viewBox="0 0 255.32 177.88">
  <defs>
    <style>
      .cls-1 {
        fill: #13b1e7;
      }

      .cls-1, .cls-2, .cls-3, .cls-4 {
        stroke-width: 0px;
      }

      .cls-2 {
        fill: #404041;
      }

      .cls-3 {
        fill: #6d6e71;
      }

      .cls-4 {
        fill: #0071bc;
      }
    </style>
  </defs>
  <g id="Logo">
    <g>
      <g>
        <path class="cls-2" d="M164.02,87.53v10.31c2.73,4.81,4.6,10.97,5.2,17.81-2.03,1.16-4.21,1.79-6.48,1.79s-4.45-.64-6.48-1.79c.6-6.85,2.47-13.02,5.21-17.83v-9.75l-27.37,5.78c-2.11.45-4.27.67-6.43.67s-4.32-.23-6.43-.67l-45.34-9.58v30.46c0,8.99,23.18,20.35,51.77,20.35h0c28.59,0,51.77-11.36,51.77-20.35v-30.46l-15.41,3.26Z"/>
        <path class="cls-3" d="M208.31,70.22l-75.01-15.85c-1.85-.39-3.75-.59-5.64-.59s-3.79.2-5.64.59l-75.01,15.85c-1.21.26-1.64,1.21-1.64,2.02s.43,1.77,1.64,2.02l75.01,15.85c3.7.78,7.58.78,11.28,0l24.48-5.17-30.06-14.07c-.64-.3-.92-1.06-.62-1.7.3-.64,1.06-.92,1.7-.62l33.14,15.51,46.37-9.8c1.21-.26,1.64-1.21,1.64-2.02s-.43-1.77-1.64-2.02Z"/>
      </g>
      <g>
        <polygon class="cls-1" points="27.71 84.31 75.28 0 50.18 0 12.55 66.69 27.71 84.31"/>
        <polygon class="cls-4" points="75.28 177.88 12.55 66.69 0 88.94 50.18 177.88 75.28 177.88"/>
      </g>
      <g>
        <polygon class="cls-1" points="227.6 93.57 180.04 177.88 205.14 177.88 242.77 111.19 227.6 93.57"/>
        <polygon class="cls-4" points="180.04 0 242.77 111.19 255.32 88.94 205.14 0 180.04 0"/>
      </g>
    </g>
  </g>
</svg>